<svg xmlns="http://www.w3.org/2000/svg" viewBox="0 0 980 420" width="980" height="420" role="img" aria-label="Monthly output of seven mirrors of one network; the Hungarian line falls 63.7% after April 2026 while the six others hold roughly flat"><title>Monthly output of seven mirrors of one network; the Hungarian line falls 63.7% after April 2026 while the six others hold roughly flat</title><rect width="980" height="420" fill="#0b1018"/><rect x="64" y="52" width="784" height="314" fill="#0f1520"/><line x1="64" y1="366.0" x2="848" y2="366.0" stroke="#1d2430" stroke-width="1"/><text x="56.0" y="369.5" font-family="ui-monospace,'IBM Plex Mono',Menlo,monospace" font-size="10" font-weight="400" letter-spacing="0" fill="#8b93a3" text-anchor="end">0</text><line x1="64" y1="289.3" x2="848" y2="289.3" stroke="#1d2430" stroke-width="1"/><text x="56.0" y="292.8" font-family="ui-monospace,'IBM Plex Mono',Menlo,monospace" font-size="10" font-weight="400" letter-spacing="0" fill="#8b93a3" text-anchor="end">100</text><line x1="64" y1="212.7" x2="848" y2="212.7" stroke="#1d2430" stroke-width="1"/><text x="56.0" y="216.2" font-family="ui-monospace,'IBM Plex Mono',Menlo,monospace" font-size="10" font-weight="400" letter-spacing="0" fill="#8b93a3" text-anchor="end">200</text><line x1="64" y1="136.0" x2="848" y2="136.0" stroke="#1d2430" stroke-width="1"/><text x="56.0" y="139.5" font-family="ui-monospace,'IBM Plex Mono',Menlo,monospace" font-size="10" font-weight="400" letter-spacing="0" fill="#8b93a3" text-anchor="end">300</text><line x1="64" y1="59.4" x2="848" y2="59.4" stroke="#1d2430" stroke-width="1"/><text x="56.0" y="62.9" font-family="ui-monospace,'IBM Plex Mono',Menlo,monospace" font-size="10" font-weight="400" letter-spacing="0" fill="#8b93a3" text-anchor="end">400</text><line x1="521.3" y1="52" x2="521.3" y2="366" stroke="#6ea8d8" stroke-width="1" stroke-dasharray="3 3"/><text x="525.3" y="65.0" font-family="ui-monospace,'IBM Plex Mono',Menlo,monospace" font-size="9.5" font-weight="400" letter-spacing="0" fill="#6ea8d8" text-anchor="start">12 Apr · vote</text><line x1="586.7" y1="52" x2="586.7" y2="366" stroke="#6ea8d8" stroke-width="1" stroke-dasharray="1 4"/><text x="590.7" y="65.0" font-family="ui-monospace,'IBM Plex Mono',Menlo,monospace" font-size="9.5" font-weight="400" letter-spacing="0" fill="#6ea8d8" text-anchor="start">≈27 Apr · onset</text><polyline points="64.0,171.8 129.3,163.1 194.7,182.6 260.0,197.7 325.3,186.3 390.7,199.3 456.0,159.3 521.3,212.0 586.7,299.9 652.0,296.4 717.3,257.2 782.7,214.8 848.0,231.8" fill="none" stroke="#ff6b57" stroke-width="3.1" stroke-opacity="1" stroke-linejoin="round"/><text x="855.0" y="235.3" font-family="ui-monospace,'IBM Plex Mono',Menlo,monospace" font-size="9.5" font-weight="500" letter-spacing="0" fill="#ff6b57" text-anchor="start">hungary</text><polyline points="64.0,90.1 129.3,90.9 194.7,101.8 260.0,112.0 325.3,98.1 390.7,129.0 456.0,96.3 521.3,134.5 586.7,155.2 652.0,152.7 717.3,168.1 782.7,130.2 848.0,134.1" fill="none" stroke="#7c8698" stroke-width="1.15" stroke-opacity="0.62" stroke-linejoin="round"/><text x="855.0" y="137.6" font-family="ui-monospace,'IBM Plex Mono',Menlo,monospace" font-size="9.5" font-weight="400" letter-spacing="0" fill="#7c8698" text-anchor="start">czechia</text><polyline points="64.0,85.8 129.3,81.6 194.7,82.0 260.0,80.5 325.3,78.2 390.7,86.9 456.0,80.9 521.3,91.0 586.7,81.4 652.0,76.6 717.3,79.0 782.7,79.6 848.0,75.3" fill="none" stroke="#7c8698" stroke-width="1.15" stroke-opacity="0.62" stroke-linejoin="round"/><text x="855.0" y="78.8" font-family="ui-monospace,'IBM Plex Mono',Menlo,monospace" font-size="9.5" font-weight="400" letter-spacing="0" fill="#7c8698" text-anchor="start">deutsch</text><polyline points="64.0,213.9 129.3,247.2 194.7,261.6 260.0,278.8 325.3,269.0 390.7,267.1 456.0,248.6 521.3,248.9 586.7,258.2 652.0,252.2 717.3,256.5 782.7,245.2 848.0,250.1" fill="none" stroke="#7c8698" stroke-width="1.15" stroke-opacity="0.62" stroke-linejoin="round"/><text x="855.0" y="253.6" font-family="ui-monospace,'IBM Plex Mono',Menlo,monospace" font-size="9.5" font-weight="400" letter-spacing="0" fill="#7c8698" text-anchor="start">moldova</text><polyline points="64.0,117.0 129.3,124.2 194.7,139.0 260.0,153.1 325.3,147.5 390.7,173.1 456.0,160.2 521.3,165.6 586.7,149.5 652.0,125.9 717.3,148.6 782.7,149.5 848.0,160.2" fill="none" stroke="#7c8698" stroke-width="1.15" stroke-opacity="0.62" stroke-linejoin="round"/><text x="855.0" y="163.7" font-family="ui-monospace,'IBM Plex Mono',Menlo,monospace" font-size="9.5" font-weight="400" letter-spacing="0" fill="#7c8698" text-anchor="start">poland</text><polyline points="64.0,268.2 129.3,273.5 194.7,272.8 260.0,278.8 325.3,281.1 390.7,284.1 456.0,267.9 521.3,271.9 586.7,269.8 652.0,265.6 717.3,276.4 782.7,271.0 848.0,273.8" fill="none" stroke="#7c8698" stroke-width="1.15" stroke-opacity="0.62" stroke-linejoin="round"/><text x="855.0" y="277.3" font-family="ui-monospace,'IBM Plex Mono',Menlo,monospace" font-size="9.5" font-weight="400" letter-spacing="0" fill="#7c8698" text-anchor="start">romania</text><polyline points="64.0,112.6 129.3,105.7 194.7,113.4 260.0,130.7 325.3,112.7 390.7,135.4 456.0,105.2 521.3,123.9 586.7,124.9 652.0,124.5 717.3,141.2 782.7,130.7 848.0,127.0" fill="none" stroke="#7c8698" stroke-width="1.15" stroke-opacity="0.62" stroke-linejoin="round"/><text x="855.0" y="130.5" font-family="ui-monospace,'IBM Plex Mono',Menlo,monospace" font-size="9.5" font-weight="400" letter-spacing="0" fill="#7c8698" text-anchor="start">slovakia</text><text x="64.0" y="383.0" font-family="ui-monospace,'IBM Plex Mono',Menlo,monospace" font-size="9" font-weight="400" letter-spacing="0" fill="#8b93a3" text-anchor="middle">2025-09</text><text x="194.7" y="383.0" font-family="ui-monospace,'IBM Plex Mono',Menlo,monospace" font-size="9" font-weight="400" letter-spacing="0" fill="#8b93a3" text-anchor="middle">2025-11</text><text x="325.3" y="383.0" font-family="ui-monospace,'IBM Plex Mono',Menlo,monospace" font-size="9" font-weight="400" letter-spacing="0" fill="#8b93a3" text-anchor="middle">2026-01</text><text x="456.0" y="383.0" font-family="ui-monospace,'IBM Plex Mono',Menlo,monospace" font-size="9" font-weight="400" letter-spacing="0" fill="#8b93a3" text-anchor="middle">2026-03</text><text x="586.7" y="383.0" font-family="ui-monospace,'IBM Plex Mono',Menlo,monospace" font-size="9" font-weight="400" letter-spacing="0" fill="#8b93a3" text-anchor="middle">2026-05</text><text x="717.3" y="383.0" font-family="ui-monospace,'IBM Plex Mono',Menlo,monospace" font-size="9" font-weight="400" letter-spacing="0" fill="#8b93a3" text-anchor="middle">2026-07</text><text x="848.0" y="383.0" font-family="ui-monospace,'IBM Plex Mono',Menlo,monospace" font-size="9" font-weight="400" letter-spacing="0" fill="#8b93a3" text-anchor="middle">2026-09</text><text x="64.0" y="24.0" font-family="ui-monospace,'IBM Plex Mono',Menlo,monospace" font-size="10.5" font-weight="400" letter-spacing="1.6" fill="#e9e4da" text-anchor="start">ARTICLES PER DAY · MONTHLY MEAN · SEVEN MIRRORS OF ONE NETWORK</text><text x="64.0" y="40.0" font-family="'Newsreader',Georgia,serif" font-size="10" font-weight="400" letter-spacing="0" fill="#8b93a3" text-anchor="start">Hungary falls 63.7% while the six siblings move +1.6% on average — but the step lands 15 days after the vote</text></svg>
