<svg xmlns="http://www.w3.org/2000/svg" viewBox="0 0 980 420" width="980" height="420" role="img" aria-label="Monthly output of seven mirrors of one network; the Hungarian line falls 63.7% after April 2026 while the six others hold roughly flat"><title>Monthly output of seven mirrors of one network; the Hungarian line falls 63.7% after April 2026 while the six others hold roughly flat</title><rect width="980" height="420" fill="#ffffff"/><rect x="64" y="52" width="784" height="314" fill="#f7f8fa"/><line x1="64" y1="366.0" x2="848" y2="366.0" stroke="#e4e7eb" stroke-width="1"/><text x="56.0" y="369.5" font-family="ui-monospace,'IBM Plex Mono',Menlo,monospace" font-size="10" font-weight="400" letter-spacing="0" fill="#6b7280" text-anchor="end">0</text><line x1="64" y1="290.1" x2="848" y2="290.1" stroke="#e4e7eb" stroke-width="1"/><text x="56.0" y="293.6" font-family="ui-monospace,'IBM Plex Mono',Menlo,monospace" font-size="10" font-weight="400" letter-spacing="0" fill="#6b7280" text-anchor="end">100</text><line x1="64" y1="214.3" x2="848" y2="214.3" stroke="#e4e7eb" stroke-width="1"/><text x="56.0" y="217.8" font-family="ui-monospace,'IBM Plex Mono',Menlo,monospace" font-size="10" font-weight="400" letter-spacing="0" fill="#6b7280" text-anchor="end">200</text><line x1="64" y1="138.4" x2="848" y2="138.4" stroke="#e4e7eb" stroke-width="1"/><text x="56.0" y="141.9" font-family="ui-monospace,'IBM Plex Mono',Menlo,monospace" font-size="10" font-weight="400" letter-spacing="0" fill="#6b7280" text-anchor="end">300</text><line x1="64" y1="62.6" x2="848" y2="62.6" stroke="#e4e7eb" stroke-width="1"/><text x="56.0" y="66.1" font-family="ui-monospace,'IBM Plex Mono',Menlo,monospace" font-size="10" font-weight="400" letter-spacing="0" fill="#6b7280" text-anchor="end">400</text><line x1="521.3" y1="52" x2="521.3" y2="366" stroke="#1f6feb" stroke-width="1" stroke-dasharray="3 3"/><text x="525.3" y="65.0" font-family="ui-monospace,'IBM Plex Mono',Menlo,monospace" font-size="9.5" font-weight="400" letter-spacing="0" fill="#1f6feb" text-anchor="start">12 Apr · vote</text><line x1="586.7" y1="52" x2="586.7" y2="366" stroke="#1f6feb" stroke-width="1" stroke-dasharray="1 4"/><text x="590.7" y="65.0" font-family="ui-monospace,'IBM Plex Mono',Menlo,monospace" font-size="9.5" font-weight="400" letter-spacing="0" fill="#1f6feb" text-anchor="start">≈27 Apr · onset</text><polyline points="64.0,173.8 129.3,165.2 194.7,184.5 260.0,199.4 325.3,188.1 390.7,201.0 456.0,161.5 521.3,213.6 586.7,300.6 652.0,297.1 717.3,258.4 782.7,216.3 848.0,230.6" fill="none" stroke="#c0392b" stroke-width="3.1" stroke-opacity="1" stroke-linejoin="round"/><text x="855.0" y="234.1" font-family="ui-monospace,'IBM Plex Mono',Menlo,monospace" font-size="9.5" font-weight="500" letter-spacing="0" fill="#c0392b" text-anchor="start">hungary</text><polyline points="64.0,93.0 129.3,93.8 194.7,104.5 260.0,114.6 325.3,100.9 390.7,131.5 456.0,99.2 521.3,136.9 586.7,157.4 652.0,154.9 717.3,170.2 782.7,132.7 848.0,135.0" fill="none" stroke="#9aa3af" stroke-width="1.15" stroke-opacity="0.62" stroke-linejoin="round"/><text x="855.0" y="138.5" font-family="ui-monospace,'IBM Plex Mono',Menlo,monospace" font-size="9.5" font-weight="400" letter-spacing="0" fill="#9aa3af" text-anchor="start">czechia</text><polyline points="64.0,88.8 129.3,84.6 194.7,85.0 260.0,83.5 325.3,81.2 390.7,89.8 456.0,83.8 521.3,93.8 586.7,84.4 652.0,79.6 717.3,82.0 782.7,82.6 848.0,75.3" fill="none" stroke="#9aa3af" stroke-width="1.15" stroke-opacity="0.62" stroke-linejoin="round"/><text x="855.0" y="78.8" font-family="ui-monospace,'IBM Plex Mono',Menlo,monospace" font-size="9.5" font-weight="400" letter-spacing="0" fill="#9aa3af" text-anchor="start">deutsch</text><polyline points="64.0,215.5 129.3,248.4 194.7,262.7 260.0,279.7 325.3,270.0 390.7,268.2 456.0,249.9 521.3,250.1 586.7,259.4 652.0,253.4 717.3,257.6 782.7,246.5 848.0,250.2" fill="none" stroke="#9aa3af" stroke-width="1.15" stroke-opacity="0.62" stroke-linejoin="round"/><text x="855.0" y="253.7" font-family="ui-monospace,'IBM Plex Mono',Menlo,monospace" font-size="9.5" font-weight="400" letter-spacing="0" fill="#9aa3af" text-anchor="start">moldova</text><polyline points="64.0,119.6 129.3,126.8 194.7,141.3 260.0,155.4 325.3,149.7 390.7,175.1 456.0,162.3 521.3,167.7 586.7,151.7 652.0,128.4 717.3,150.9 782.7,151.8 848.0,163.5" fill="none" stroke="#9aa3af" stroke-width="1.15" stroke-opacity="0.62" stroke-linejoin="round"/><text x="855.0" y="167.0" font-family="ui-monospace,'IBM Plex Mono',Menlo,monospace" font-size="9.5" font-weight="400" letter-spacing="0" fill="#9aa3af" text-anchor="start">poland</text><polyline points="64.0,269.2 129.3,274.4 194.7,273.8 260.0,279.7 325.3,282.0 390.7,284.9 456.0,268.9 521.3,272.9 586.7,270.8 652.0,266.6 717.3,277.3 782.7,272.0 848.0,272.1" fill="none" stroke="#9aa3af" stroke-width="1.15" stroke-opacity="0.62" stroke-linejoin="round"/><text x="855.0" y="275.6" font-family="ui-monospace,'IBM Plex Mono',Menlo,monospace" font-size="9.5" font-weight="400" letter-spacing="0" fill="#9aa3af" text-anchor="start">romania</text><polyline points="64.0,115.2 129.3,108.4 194.7,116.1 260.0,133.1 325.3,115.4 390.7,137.8 456.0,107.9 521.3,126.5 586.7,127.4 652.0,127.1 717.3,143.5 782.7,133.1 848.0,125.9" fill="none" stroke="#9aa3af" stroke-width="1.15" stroke-opacity="0.62" stroke-linejoin="round"/><text x="855.0" y="129.4" font-family="ui-monospace,'IBM Plex Mono',Menlo,monospace" font-size="9.5" font-weight="400" letter-spacing="0" fill="#9aa3af" text-anchor="start">slovakia</text><text x="64.0" y="383.0" font-family="ui-monospace,'IBM Plex Mono',Menlo,monospace" font-size="9" font-weight="400" letter-spacing="0" fill="#6b7280" text-anchor="middle">2025-09</text><text x="194.7" y="383.0" font-family="ui-monospace,'IBM Plex Mono',Menlo,monospace" font-size="9" font-weight="400" letter-spacing="0" fill="#6b7280" text-anchor="middle">2025-11</text><text x="325.3" y="383.0" font-family="ui-monospace,'IBM Plex Mono',Menlo,monospace" font-size="9" font-weight="400" letter-spacing="0" fill="#6b7280" text-anchor="middle">2026-01</text><text x="456.0" y="383.0" font-family="ui-monospace,'IBM Plex Mono',Menlo,monospace" font-size="9" font-weight="400" letter-spacing="0" fill="#6b7280" text-anchor="middle">2026-03</text><text x="586.7" y="383.0" font-family="ui-monospace,'IBM Plex Mono',Menlo,monospace" font-size="9" font-weight="400" letter-spacing="0" fill="#6b7280" text-anchor="middle">2026-05</text><text x="717.3" y="383.0" font-family="ui-monospace,'IBM Plex Mono',Menlo,monospace" font-size="9" font-weight="400" letter-spacing="0" fill="#6b7280" text-anchor="middle">2026-07</text><text x="848.0" y="383.0" font-family="ui-monospace,'IBM Plex Mono',Menlo,monospace" font-size="9" font-weight="400" letter-spacing="0" fill="#6b7280" text-anchor="middle">2026-09</text><text x="64.0" y="24.0" font-family="ui-monospace,'IBM Plex Mono',Menlo,monospace" font-size="10.5" font-weight="400" letter-spacing="1.6" fill="#12161d" text-anchor="start">ARTICLES PER DAY · MONTHLY MEAN · SEVEN MIRRORS OF ONE NETWORK</text><text x="64.0" y="40.0" font-family="'Newsreader',Georgia,serif" font-size="10" font-weight="400" letter-spacing="0" fill="#6b7280" text-anchor="start">Hungary falls 63.7% while the six siblings move +1.6% on average — but the step lands 15 days after the vote</text></svg>
