<svg xmlns="http://www.w3.org/2000/svg" viewBox="0 0 980 420" width="980" height="420" role="img" aria-label="Monthly output of seven mirrors of one network; the Hungarian line falls 63.7% after April 2026 while the six others hold roughly flat"><title>Monthly output of seven mirrors of one network; the Hungarian line falls 63.7% after April 2026 while the six others hold roughly flat</title><rect width="980" height="420" fill="#ffffff"/><rect x="64" y="52" width="784" height="314" fill="#f7f8fa"/><line x1="64" y1="366.0" x2="848" y2="366.0" stroke="#e4e7eb" stroke-width="1"/><text x="56.0" y="369.5" font-family="ui-monospace,'IBM Plex Mono',Menlo,monospace" font-size="10" font-weight="400" letter-spacing="0" fill="#6b7280" text-anchor="end">0</text><line x1="64" y1="289.9" x2="848" y2="289.9" stroke="#e4e7eb" stroke-width="1"/><text x="56.0" y="293.4" font-family="ui-monospace,'IBM Plex Mono',Menlo,monospace" font-size="10" font-weight="400" letter-spacing="0" fill="#6b7280" text-anchor="end">100</text><line x1="64" y1="213.9" x2="848" y2="213.9" stroke="#e4e7eb" stroke-width="1"/><text x="56.0" y="217.4" font-family="ui-monospace,'IBM Plex Mono',Menlo,monospace" font-size="10" font-weight="400" letter-spacing="0" fill="#6b7280" text-anchor="end">200</text><line x1="64" y1="137.8" x2="848" y2="137.8" stroke="#e4e7eb" stroke-width="1"/><text x="56.0" y="141.3" font-family="ui-monospace,'IBM Plex Mono',Menlo,monospace" font-size="10" font-weight="400" letter-spacing="0" fill="#6b7280" text-anchor="end">300</text><line x1="64" y1="61.8" x2="848" y2="61.8" stroke="#e4e7eb" stroke-width="1"/><text x="56.0" y="65.3" font-family="ui-monospace,'IBM Plex Mono',Menlo,monospace" font-size="10" font-weight="400" letter-spacing="0" fill="#6b7280" text-anchor="end">400</text><line x1="521.3" y1="52" x2="521.3" y2="366" stroke="#1f6feb" stroke-width="1" stroke-dasharray="3 3"/><text x="525.3" y="65.0" font-family="ui-monospace,'IBM Plex Mono',Menlo,monospace" font-size="9.5" font-weight="400" letter-spacing="0" fill="#1f6feb" text-anchor="start">12 Apr · vote</text><line x1="586.7" y1="52" x2="586.7" y2="366" stroke="#1f6feb" stroke-width="1" stroke-dasharray="1 4"/><text x="590.7" y="65.0" font-family="ui-monospace,'IBM Plex Mono',Menlo,monospace" font-size="9.5" font-weight="400" letter-spacing="0" fill="#1f6feb" text-anchor="start">≈27 Apr · onset</text><polyline points="64.0,173.3 129.3,164.7 194.7,184.0 260.0,199.0 325.3,187.7 390.7,200.6 456.0,161.0 521.3,213.2 586.7,300.4 652.0,296.9 717.3,258.1 782.7,216.0 848.0,232.5" fill="none" stroke="#c0392b" stroke-width="3.1" stroke-opacity="1" stroke-linejoin="round"/><text x="855.0" y="236.0" font-family="ui-monospace,'IBM Plex Mono',Menlo,monospace" font-size="9.5" font-weight="500" letter-spacing="0" fill="#c0392b" text-anchor="start">hungary</text><polyline points="64.0,92.3 129.3,93.1 194.7,103.9 260.0,114.0 325.3,100.2 390.7,130.9 456.0,98.5 521.3,136.3 586.7,156.9 652.0,154.4 717.3,169.6 782.7,132.1 848.0,134.8" fill="none" stroke="#9aa3af" stroke-width="1.15" stroke-opacity="0.62" stroke-linejoin="round"/><text x="855.0" y="138.3" font-family="ui-monospace,'IBM Plex Mono',Menlo,monospace" font-size="9.5" font-weight="400" letter-spacing="0" fill="#9aa3af" text-anchor="start">czechia</text><polyline points="64.0,88.0 129.3,83.9 194.7,84.2 260.0,82.7 325.3,80.4 390.7,89.1 456.0,83.1 521.3,93.1 586.7,83.6 652.0,78.8 717.3,81.3 782.7,81.9 848.0,75.3" fill="none" stroke="#9aa3af" stroke-width="1.15" stroke-opacity="0.62" stroke-linejoin="round"/><text x="855.0" y="78.8" font-family="ui-monospace,'IBM Plex Mono',Menlo,monospace" font-size="9.5" font-weight="400" letter-spacing="0" fill="#9aa3af" text-anchor="start">deutsch</text><polyline points="64.0,215.1 129.3,248.1 194.7,262.4 260.0,279.5 325.3,269.8 390.7,267.9 456.0,249.6 521.3,249.8 586.7,259.1 652.0,253.1 717.3,257.3 782.7,246.1 848.0,248.2" fill="none" stroke="#9aa3af" stroke-width="1.15" stroke-opacity="0.62" stroke-linejoin="round"/><text x="855.0" y="251.7" font-family="ui-monospace,'IBM Plex Mono',Menlo,monospace" font-size="9.5" font-weight="400" letter-spacing="0" fill="#9aa3af" text-anchor="start">moldova</text><polyline points="64.0,119.0 129.3,126.1 194.7,140.7 260.0,154.8 325.3,149.2 390.7,174.6 456.0,161.8 521.3,167.2 586.7,151.2 652.0,127.8 717.3,150.3 782.7,151.2 848.0,159.8" fill="none" stroke="#9aa3af" stroke-width="1.15" stroke-opacity="0.62" stroke-linejoin="round"/><text x="855.0" y="163.3" font-family="ui-monospace,'IBM Plex Mono',Menlo,monospace" font-size="9.5" font-weight="400" letter-spacing="0" fill="#9aa3af" text-anchor="start">poland</text><polyline points="64.0,269.0 129.3,274.2 194.7,273.5 260.0,279.5 325.3,281.8 390.7,284.7 456.0,268.7 521.3,272.6 586.7,270.6 652.0,266.4 717.3,277.1 782.7,271.8 848.0,272.0" fill="none" stroke="#9aa3af" stroke-width="1.15" stroke-opacity="0.62" stroke-linejoin="round"/><text x="855.0" y="275.5" font-family="ui-monospace,'IBM Plex Mono',Menlo,monospace" font-size="9.5" font-weight="400" letter-spacing="0" fill="#9aa3af" text-anchor="start">romania</text><polyline points="64.0,114.6 129.3,107.7 194.7,115.4 260.0,132.5 325.3,114.7 390.7,137.2 456.0,107.2 521.3,125.8 586.7,126.8 652.0,126.4 717.3,142.9 782.7,132.5 848.0,126.4" fill="none" stroke="#9aa3af" stroke-width="1.15" stroke-opacity="0.62" stroke-linejoin="round"/><text x="855.0" y="129.9" font-family="ui-monospace,'IBM Plex Mono',Menlo,monospace" font-size="9.5" font-weight="400" letter-spacing="0" fill="#9aa3af" text-anchor="start">slovakia</text><text x="64.0" y="383.0" font-family="ui-monospace,'IBM Plex Mono',Menlo,monospace" font-size="9" font-weight="400" letter-spacing="0" fill="#6b7280" text-anchor="middle">2025-09</text><text x="194.7" y="383.0" font-family="ui-monospace,'IBM Plex Mono',Menlo,monospace" font-size="9" font-weight="400" letter-spacing="0" fill="#6b7280" text-anchor="middle">2025-11</text><text x="325.3" y="383.0" font-family="ui-monospace,'IBM Plex Mono',Menlo,monospace" font-size="9" font-weight="400" letter-spacing="0" fill="#6b7280" text-anchor="middle">2026-01</text><text x="456.0" y="383.0" font-family="ui-monospace,'IBM Plex Mono',Menlo,monospace" font-size="9" font-weight="400" letter-spacing="0" fill="#6b7280" text-anchor="middle">2026-03</text><text x="586.7" y="383.0" font-family="ui-monospace,'IBM Plex Mono',Menlo,monospace" font-size="9" font-weight="400" letter-spacing="0" fill="#6b7280" text-anchor="middle">2026-05</text><text x="717.3" y="383.0" font-family="ui-monospace,'IBM Plex Mono',Menlo,monospace" font-size="9" font-weight="400" letter-spacing="0" fill="#6b7280" text-anchor="middle">2026-07</text><text x="848.0" y="383.0" font-family="ui-monospace,'IBM Plex Mono',Menlo,monospace" font-size="9" font-weight="400" letter-spacing="0" fill="#6b7280" text-anchor="middle">2026-09</text><text x="64.0" y="24.0" font-family="ui-monospace,'IBM Plex Mono',Menlo,monospace" font-size="10.5" font-weight="400" letter-spacing="1.6" fill="#12161d" text-anchor="start">ARTICLES PER DAY · MONTHLY MEAN · SEVEN MIRRORS OF ONE NETWORK</text><text x="64.0" y="40.0" font-family="'Newsreader',Georgia,serif" font-size="10" font-weight="400" letter-spacing="0" fill="#6b7280" text-anchor="start">Hungary falls 63.7% while the six siblings move +1.6% on average — but the step lands 15 days after the vote</text></svg>
