<svg xmlns="http://www.w3.org/2000/svg" viewBox="0 0 980 420" width="980" height="420" role="img" aria-label="Monthly output of seven mirrors of one network; the Hungarian line falls 63.7% after April 2026 while the six others hold roughly flat"><title>Monthly output of seven mirrors of one network; the Hungarian line falls 63.7% after April 2026 while the six others hold roughly flat</title><rect width="980" height="420" fill="#ffffff"/><rect x="64" y="52" width="784" height="314" fill="#f7f8fa"/><line x1="64" y1="366.0" x2="848" y2="366.0" stroke="#e4e7eb" stroke-width="1"/><text x="56.0" y="369.5" font-family="ui-monospace,'IBM Plex Mono',Menlo,monospace" font-size="10" font-weight="400" letter-spacing="0" fill="#6b7280" text-anchor="end">0</text><line x1="64" y1="289.3" x2="848" y2="289.3" stroke="#e4e7eb" stroke-width="1"/><text x="56.0" y="292.8" font-family="ui-monospace,'IBM Plex Mono',Menlo,monospace" font-size="10" font-weight="400" letter-spacing="0" fill="#6b7280" text-anchor="end">100</text><line x1="64" y1="212.6" x2="848" y2="212.6" stroke="#e4e7eb" stroke-width="1"/><text x="56.0" y="216.1" font-family="ui-monospace,'IBM Plex Mono',Menlo,monospace" font-size="10" font-weight="400" letter-spacing="0" fill="#6b7280" text-anchor="end">200</text><line x1="64" y1="135.9" x2="848" y2="135.9" stroke="#e4e7eb" stroke-width="1"/><text x="56.0" y="139.4" font-family="ui-monospace,'IBM Plex Mono',Menlo,monospace" font-size="10" font-weight="400" letter-spacing="0" fill="#6b7280" text-anchor="end">300</text><line x1="64" y1="59.2" x2="848" y2="59.2" stroke="#e4e7eb" stroke-width="1"/><text x="56.0" y="62.7" font-family="ui-monospace,'IBM Plex Mono',Menlo,monospace" font-size="10" font-weight="400" letter-spacing="0" fill="#6b7280" text-anchor="end">400</text><line x1="521.3" y1="52" x2="521.3" y2="366" stroke="#1f6feb" stroke-width="1" stroke-dasharray="3 3"/><text x="525.3" y="65.0" font-family="ui-monospace,'IBM Plex Mono',Menlo,monospace" font-size="9.5" font-weight="400" letter-spacing="0" fill="#1f6feb" text-anchor="start">12 Apr · vote</text><line x1="586.7" y1="52" x2="586.7" y2="366" stroke="#1f6feb" stroke-width="1" stroke-dasharray="1 4"/><text x="590.7" y="65.0" font-family="ui-monospace,'IBM Plex Mono',Menlo,monospace" font-size="9.5" font-weight="400" letter-spacing="0" fill="#1f6feb" text-anchor="start">≈27 Apr · onset</text><polyline points="64.0,171.7 129.3,163.0 194.7,182.5 260.0,197.6 325.3,186.2 390.7,199.2 456.0,159.2 521.3,211.9 586.7,299.9 652.0,296.4 717.3,257.2 782.7,214.7 848.0,232.9" fill="none" stroke="#c0392b" stroke-width="3.1" stroke-opacity="1" stroke-linejoin="round"/><text x="855.0" y="236.4" font-family="ui-monospace,'IBM Plex Mono',Menlo,monospace" font-size="9.5" font-weight="500" letter-spacing="0" fill="#c0392b" text-anchor="start">hungary</text><polyline points="64.0,90.0 129.3,90.8 194.7,101.6 260.0,111.8 325.3,98.0 390.7,128.9 456.0,96.2 521.3,134.4 586.7,155.1 652.0,152.6 717.3,168.0 782.7,130.1 848.0,128.4" fill="none" stroke="#9aa3af" stroke-width="1.15" stroke-opacity="0.62" stroke-linejoin="round"/><text x="855.0" y="131.9" font-family="ui-monospace,'IBM Plex Mono',Menlo,monospace" font-size="9.5" font-weight="400" letter-spacing="0" fill="#9aa3af" text-anchor="start">czechia</text><polyline points="64.0,85.7 129.3,81.5 194.7,81.9 260.0,80.3 325.3,78.0 390.7,86.8 456.0,80.7 521.3,90.8 586.7,81.2 652.0,76.4 717.3,78.9 782.7,79.5 848.0,75.3" fill="none" stroke="#9aa3af" stroke-width="1.15" stroke-opacity="0.62" stroke-linejoin="round"/><text x="855.0" y="78.8" font-family="ui-monospace,'IBM Plex Mono',Menlo,monospace" font-size="9.5" font-weight="400" letter-spacing="0" fill="#9aa3af" text-anchor="start">deutsch</text><polyline points="64.0,213.8 129.3,247.1 194.7,261.5 260.0,278.7 325.3,269.0 390.7,267.1 456.0,248.6 521.3,248.8 586.7,258.2 652.0,252.2 717.3,256.4 782.7,245.1 848.0,250.7" fill="none" stroke="#9aa3af" stroke-width="1.15" stroke-opacity="0.62" stroke-linejoin="round"/><text x="855.0" y="254.2" font-family="ui-monospace,'IBM Plex Mono',Menlo,monospace" font-size="9.5" font-weight="400" letter-spacing="0" fill="#9aa3af" text-anchor="start">moldova</text><polyline points="64.0,116.9 129.3,124.1 194.7,138.8 260.0,153.0 325.3,147.4 390.7,173.0 456.0,160.1 521.3,165.5 586.7,149.3 652.0,125.8 717.3,148.5 782.7,149.4 848.0,148.6" fill="none" stroke="#9aa3af" stroke-width="1.15" stroke-opacity="0.62" stroke-linejoin="round"/><text x="855.0" y="152.1" font-family="ui-monospace,'IBM Plex Mono',Menlo,monospace" font-size="9.5" font-weight="400" letter-spacing="0" fill="#9aa3af" text-anchor="start">poland</text><polyline points="64.0,268.1 129.3,273.4 194.7,272.7 260.0,278.7 325.3,281.1 390.7,284.0 456.0,267.8 521.3,271.8 586.7,269.8 652.0,265.5 717.3,276.3 782.7,271.0 848.0,267.8" fill="none" stroke="#9aa3af" stroke-width="1.15" stroke-opacity="0.62" stroke-linejoin="round"/><text x="855.0" y="271.3" font-family="ui-monospace,'IBM Plex Mono',Menlo,monospace" font-size="9.5" font-weight="400" letter-spacing="0" fill="#9aa3af" text-anchor="start">romania</text><polyline points="64.0,112.5 129.3,105.6 194.7,113.3 260.0,130.6 325.3,112.6 390.7,135.2 456.0,105.0 521.3,123.8 586.7,124.8 652.0,124.4 717.3,141.1 782.7,130.6 848.0,127.7" fill="none" stroke="#9aa3af" stroke-width="1.15" stroke-opacity="0.62" stroke-linejoin="round"/><text x="855.0" y="131.2" font-family="ui-monospace,'IBM Plex Mono',Menlo,monospace" font-size="9.5" font-weight="400" letter-spacing="0" fill="#9aa3af" text-anchor="start">slovakia</text><text x="64.0" y="383.0" font-family="ui-monospace,'IBM Plex Mono',Menlo,monospace" font-size="9" font-weight="400" letter-spacing="0" fill="#6b7280" text-anchor="middle">2025-09</text><text x="194.7" y="383.0" font-family="ui-monospace,'IBM Plex Mono',Menlo,monospace" font-size="9" font-weight="400" letter-spacing="0" fill="#6b7280" text-anchor="middle">2025-11</text><text x="325.3" y="383.0" font-family="ui-monospace,'IBM Plex Mono',Menlo,monospace" font-size="9" font-weight="400" letter-spacing="0" fill="#6b7280" text-anchor="middle">2026-01</text><text x="456.0" y="383.0" font-family="ui-monospace,'IBM Plex Mono',Menlo,monospace" font-size="9" font-weight="400" letter-spacing="0" fill="#6b7280" text-anchor="middle">2026-03</text><text x="586.7" y="383.0" font-family="ui-monospace,'IBM Plex Mono',Menlo,monospace" font-size="9" font-weight="400" letter-spacing="0" fill="#6b7280" text-anchor="middle">2026-05</text><text x="717.3" y="383.0" font-family="ui-monospace,'IBM Plex Mono',Menlo,monospace" font-size="9" font-weight="400" letter-spacing="0" fill="#6b7280" text-anchor="middle">2026-07</text><text x="848.0" y="383.0" font-family="ui-monospace,'IBM Plex Mono',Menlo,monospace" font-size="9" font-weight="400" letter-spacing="0" fill="#6b7280" text-anchor="middle">2026-09</text><text x="64.0" y="24.0" font-family="ui-monospace,'IBM Plex Mono',Menlo,monospace" font-size="10.5" font-weight="400" letter-spacing="1.6" fill="#12161d" text-anchor="start">ARTICLES PER DAY · MONTHLY MEAN · SEVEN MIRRORS OF ONE NETWORK</text><text x="64.0" y="40.0" font-family="'Newsreader',Georgia,serif" font-size="10" font-weight="400" letter-spacing="0" fill="#6b7280" text-anchor="start">Hungary falls 63.7% while the six siblings move +1.6% on average — but the step lands 15 days after the vote</text></svg>
