<svg xmlns="http://www.w3.org/2000/svg" viewBox="0 0 980 420" width="980" height="420" role="img" aria-label="Monthly output of seven mirrors of one network; the Hungarian line falls 63.7% after April 2026 while the six others hold roughly flat"><title>Monthly output of seven mirrors of one network; the Hungarian line falls 63.7% after April 2026 while the six others hold roughly flat</title><rect width="980" height="420" fill="#0b1018"/><rect x="64" y="52" width="784" height="314" fill="#0f1520"/><line x1="64" y1="366.0" x2="848" y2="366.0" stroke="#1d2430" stroke-width="1"/><text x="56.0" y="369.5" font-family="ui-monospace,'IBM Plex Mono',Menlo,monospace" font-size="10" font-weight="400" letter-spacing="0" fill="#8b93a3" text-anchor="end">0</text><line x1="64" y1="289.5" x2="848" y2="289.5" stroke="#1d2430" stroke-width="1"/><text x="56.0" y="293.0" font-family="ui-monospace,'IBM Plex Mono',Menlo,monospace" font-size="10" font-weight="400" letter-spacing="0" fill="#8b93a3" text-anchor="end">100</text><line x1="64" y1="212.9" x2="848" y2="212.9" stroke="#1d2430" stroke-width="1"/><text x="56.0" y="216.4" font-family="ui-monospace,'IBM Plex Mono',Menlo,monospace" font-size="10" font-weight="400" letter-spacing="0" fill="#8b93a3" text-anchor="end">200</text><line x1="64" y1="136.4" x2="848" y2="136.4" stroke="#1d2430" stroke-width="1"/><text x="56.0" y="139.9" font-family="ui-monospace,'IBM Plex Mono',Menlo,monospace" font-size="10" font-weight="400" letter-spacing="0" fill="#8b93a3" text-anchor="end">300</text><line x1="64" y1="59.9" x2="848" y2="59.9" stroke="#1d2430" stroke-width="1"/><text x="56.0" y="63.4" font-family="ui-monospace,'IBM Plex Mono',Menlo,monospace" font-size="10" font-weight="400" letter-spacing="0" fill="#8b93a3" text-anchor="end">400</text><line x1="521.3" y1="52" x2="521.3" y2="366" stroke="#6ea8d8" stroke-width="1" stroke-dasharray="3 3"/><text x="525.3" y="65.0" font-family="ui-monospace,'IBM Plex Mono',Menlo,monospace" font-size="9.5" font-weight="400" letter-spacing="0" fill="#6ea8d8" text-anchor="start">12 Apr · vote</text><line x1="586.7" y1="52" x2="586.7" y2="366" stroke="#6ea8d8" stroke-width="1" stroke-dasharray="1 4"/><text x="590.7" y="65.0" font-family="ui-monospace,'IBM Plex Mono',Menlo,monospace" font-size="9.5" font-weight="400" letter-spacing="0" fill="#6ea8d8" text-anchor="start">≈27 Apr · onset</text><polyline points="64.0,172.1 129.3,163.4 194.7,182.9 260.0,197.9 325.3,186.5 390.7,199.5 456.0,159.7 521.3,212.2 586.7,300.0 652.0,296.5 717.3,257.4 782.7,215.0 848.0,233.5" fill="none" stroke="#ff6b57" stroke-width="3.1" stroke-opacity="1" stroke-linejoin="round"/><text x="855.0" y="237.0" font-family="ui-monospace,'IBM Plex Mono',Menlo,monospace" font-size="9.5" font-weight="500" letter-spacing="0" fill="#ff6b57" text-anchor="start">hungary</text><polyline points="64.0,90.6 129.3,91.3 194.7,102.2 260.0,112.4 325.3,98.5 390.7,129.4 456.0,96.8 521.3,134.9 586.7,155.5 652.0,153.0 717.3,168.4 782.7,130.6 848.0,134.7" fill="none" stroke="#7c8698" stroke-width="1.15" stroke-opacity="0.62" stroke-linejoin="round"/><text x="855.0" y="138.2" font-family="ui-monospace,'IBM Plex Mono',Menlo,monospace" font-size="9.5" font-weight="400" letter-spacing="0" fill="#7c8698" text-anchor="start">czechia</text><polyline points="64.0,86.3 129.3,82.1 194.7,82.5 260.0,80.9 325.3,78.6 390.7,87.4 456.0,81.3 521.3,91.4 586.7,81.8 652.0,77.0 717.3,79.5 782.7,80.1 848.0,75.3" fill="none" stroke="#7c8698" stroke-width="1.15" stroke-opacity="0.62" stroke-linejoin="round"/><text x="855.0" y="78.8" font-family="ui-monospace,'IBM Plex Mono',Menlo,monospace" font-size="9.5" font-weight="400" letter-spacing="0" fill="#7c8698" text-anchor="start">deutsch</text><polyline points="64.0,214.2 129.3,247.4 194.7,261.8 260.0,278.9 325.3,269.2 390.7,267.3 456.0,248.8 521.3,249.1 586.7,258.4 652.0,252.4 717.3,256.6 782.7,245.4 848.0,250.7" fill="none" stroke="#7c8698" stroke-width="1.15" stroke-opacity="0.62" stroke-linejoin="round"/><text x="855.0" y="254.2" font-family="ui-monospace,'IBM Plex Mono',Menlo,monospace" font-size="9.5" font-weight="400" letter-spacing="0" fill="#7c8698" text-anchor="start">moldova</text><polyline points="64.0,117.4 129.3,124.6 194.7,139.3 260.0,153.5 325.3,147.8 390.7,173.4 456.0,160.5 521.3,165.9 586.7,149.8 652.0,126.3 717.3,149.0 782.7,149.9 848.0,153.2" fill="none" stroke="#7c8698" stroke-width="1.15" stroke-opacity="0.62" stroke-linejoin="round"/><text x="855.0" y="156.7" font-family="ui-monospace,'IBM Plex Mono',Menlo,monospace" font-size="9.5" font-weight="400" letter-spacing="0" fill="#7c8698" text-anchor="start">poland</text><polyline points="64.0,268.3 129.3,273.6 194.7,272.9 260.0,278.9 325.3,281.3 390.7,284.2 456.0,268.0 521.3,272.0 586.7,270.0 652.0,265.7 717.3,276.5 782.7,271.2 848.0,273.8" fill="none" stroke="#7c8698" stroke-width="1.15" stroke-opacity="0.62" stroke-linejoin="round"/><text x="855.0" y="277.3" font-family="ui-monospace,'IBM Plex Mono',Menlo,monospace" font-size="9.5" font-weight="400" letter-spacing="0" fill="#7c8698" text-anchor="start">romania</text><polyline points="64.0,113.0 129.3,106.1 194.7,113.8 260.0,131.1 325.3,113.1 390.7,135.7 456.0,105.6 521.3,124.3 586.7,125.3 652.0,124.9 717.3,141.5 782.7,131.1 848.0,130.2" fill="none" stroke="#7c8698" stroke-width="1.15" stroke-opacity="0.62" stroke-linejoin="round"/><text x="855.0" y="133.7" font-family="ui-monospace,'IBM Plex Mono',Menlo,monospace" font-size="9.5" font-weight="400" letter-spacing="0" fill="#7c8698" text-anchor="start">slovakia</text><text x="64.0" y="383.0" font-family="ui-monospace,'IBM Plex Mono',Menlo,monospace" font-size="9" font-weight="400" letter-spacing="0" fill="#8b93a3" text-anchor="middle">2025-09</text><text x="194.7" y="383.0" font-family="ui-monospace,'IBM Plex Mono',Menlo,monospace" font-size="9" font-weight="400" letter-spacing="0" fill="#8b93a3" text-anchor="middle">2025-11</text><text x="325.3" y="383.0" font-family="ui-monospace,'IBM Plex Mono',Menlo,monospace" font-size="9" font-weight="400" letter-spacing="0" fill="#8b93a3" text-anchor="middle">2026-01</text><text x="456.0" y="383.0" font-family="ui-monospace,'IBM Plex Mono',Menlo,monospace" font-size="9" font-weight="400" letter-spacing="0" fill="#8b93a3" text-anchor="middle">2026-03</text><text x="586.7" y="383.0" font-family="ui-monospace,'IBM Plex Mono',Menlo,monospace" font-size="9" font-weight="400" letter-spacing="0" fill="#8b93a3" text-anchor="middle">2026-05</text><text x="717.3" y="383.0" font-family="ui-monospace,'IBM Plex Mono',Menlo,monospace" font-size="9" font-weight="400" letter-spacing="0" fill="#8b93a3" text-anchor="middle">2026-07</text><text x="848.0" y="383.0" font-family="ui-monospace,'IBM Plex Mono',Menlo,monospace" font-size="9" font-weight="400" letter-spacing="0" fill="#8b93a3" text-anchor="middle">2026-09</text><text x="64.0" y="24.0" font-family="ui-monospace,'IBM Plex Mono',Menlo,monospace" font-size="10.5" font-weight="400" letter-spacing="1.6" fill="#e9e4da" text-anchor="start">ARTICLES PER DAY · MONTHLY MEAN · SEVEN MIRRORS OF ONE NETWORK</text><text x="64.0" y="40.0" font-family="'Newsreader',Georgia,serif" font-size="10" font-weight="400" letter-spacing="0" fill="#8b93a3" text-anchor="start">Hungary falls 63.7% while the six siblings move +1.6% on average — but the step lands 15 days after the vote</text></svg>
