<svg xmlns="http://www.w3.org/2000/svg" viewBox="0 0 980 420" width="980" height="420" role="img" aria-label="Monthly output of seven mirrors of one network; the Hungarian line falls 63.7% after April 2026 while the six others hold roughly flat"><title>Monthly output of seven mirrors of one network; the Hungarian line falls 63.7% after April 2026 while the six others hold roughly flat</title><rect width="980" height="420" fill="#ffffff"/><rect x="64" y="52" width="784" height="314" fill="#f7f8fa"/><line x1="64" y1="366.0" x2="848" y2="366.0" stroke="#e4e7eb" stroke-width="1"/><text x="56.0" y="369.5" font-family="ui-monospace,'IBM Plex Mono',Menlo,monospace" font-size="10" font-weight="400" letter-spacing="0" fill="#6b7280" text-anchor="end">0</text><line x1="64" y1="290.7" x2="848" y2="290.7" stroke="#e4e7eb" stroke-width="1"/><text x="56.0" y="294.2" font-family="ui-monospace,'IBM Plex Mono',Menlo,monospace" font-size="10" font-weight="400" letter-spacing="0" fill="#6b7280" text-anchor="end">100</text><line x1="64" y1="215.4" x2="848" y2="215.4" stroke="#e4e7eb" stroke-width="1"/><text x="56.0" y="218.9" font-family="ui-monospace,'IBM Plex Mono',Menlo,monospace" font-size="10" font-weight="400" letter-spacing="0" fill="#6b7280" text-anchor="end">200</text><line x1="64" y1="140.2" x2="848" y2="140.2" stroke="#e4e7eb" stroke-width="1"/><text x="56.0" y="143.7" font-family="ui-monospace,'IBM Plex Mono',Menlo,monospace" font-size="10" font-weight="400" letter-spacing="0" fill="#6b7280" text-anchor="end">300</text><line x1="64" y1="64.9" x2="848" y2="64.9" stroke="#e4e7eb" stroke-width="1"/><text x="56.0" y="68.4" font-family="ui-monospace,'IBM Plex Mono',Menlo,monospace" font-size="10" font-weight="400" letter-spacing="0" fill="#6b7280" text-anchor="end">400</text><line x1="521.3" y1="52" x2="521.3" y2="366" stroke="#1f6feb" stroke-width="1" stroke-dasharray="3 3"/><text x="525.3" y="65.0" font-family="ui-monospace,'IBM Plex Mono',Menlo,monospace" font-size="9.5" font-weight="400" letter-spacing="0" fill="#1f6feb" text-anchor="start">12 Apr · vote</text><line x1="586.7" y1="52" x2="586.7" y2="366" stroke="#1f6feb" stroke-width="1" stroke-dasharray="1 4"/><text x="590.7" y="65.0" font-family="ui-monospace,'IBM Plex Mono',Menlo,monospace" font-size="9.5" font-weight="400" letter-spacing="0" fill="#1f6feb" text-anchor="start">≈27 Apr · onset</text><polyline points="64.0,175.2 129.3,166.7 194.7,185.8 260.0,200.7 325.3,189.5 390.7,202.3 456.0,163.0 521.3,214.8 586.7,301.1 652.0,297.6 717.3,259.2 782.7,217.5 848.0,234.9" fill="none" stroke="#c0392b" stroke-width="3.1" stroke-opacity="1" stroke-linejoin="round"/><text x="855.0" y="238.4" font-family="ui-monospace,'IBM Plex Mono',Menlo,monospace" font-size="9.5" font-weight="500" letter-spacing="0" fill="#c0392b" text-anchor="start">hungary</text><polyline points="64.0,95.1 129.3,95.8 194.7,106.5 260.0,116.5 325.3,102.9 390.7,133.2 456.0,101.2 521.3,138.6 586.7,159.0 652.0,156.5 717.3,171.6 782.7,134.4 848.0,129.3" fill="none" stroke="#9aa3af" stroke-width="1.15" stroke-opacity="0.62" stroke-linejoin="round"/><text x="855.0" y="132.8" font-family="ui-monospace,'IBM Plex Mono',Menlo,monospace" font-size="9.5" font-weight="400" letter-spacing="0" fill="#9aa3af" text-anchor="start">czechia</text><polyline points="64.0,90.8 129.3,86.7 194.7,87.1 260.0,85.6 325.3,83.3 390.7,91.9 456.0,85.9 521.3,95.9 586.7,86.5 652.0,81.7 717.3,84.1 782.7,84.7 848.0,75.3" fill="none" stroke="#9aa3af" stroke-width="1.15" stroke-opacity="0.62" stroke-linejoin="round"/><text x="855.0" y="78.8" font-family="ui-monospace,'IBM Plex Mono',Menlo,monospace" font-size="9.5" font-weight="400" letter-spacing="0" fill="#9aa3af" text-anchor="start">deutsch</text><polyline points="64.0,216.6 129.3,249.3 194.7,263.5 260.0,280.3 325.3,270.8 390.7,268.9 456.0,250.7 521.3,251.0 586.7,260.2 652.0,254.3 717.3,258.4 782.7,247.4 848.0,256.4" fill="none" stroke="#9aa3af" stroke-width="1.15" stroke-opacity="0.62" stroke-linejoin="round"/><text x="855.0" y="259.9" font-family="ui-monospace,'IBM Plex Mono',Menlo,monospace" font-size="9.5" font-weight="400" letter-spacing="0" fill="#9aa3af" text-anchor="start">moldova</text><polyline points="64.0,121.5 129.3,128.6 194.7,143.0 260.0,156.9 325.3,151.4 390.7,176.5 456.0,163.9 521.3,169.2 586.7,153.3 652.0,130.2 717.3,152.5 782.7,153.4 848.0,162.9" fill="none" stroke="#9aa3af" stroke-width="1.15" stroke-opacity="0.62" stroke-linejoin="round"/><text x="855.0" y="166.4" font-family="ui-monospace,'IBM Plex Mono',Menlo,monospace" font-size="9.5" font-weight="400" letter-spacing="0" fill="#9aa3af" text-anchor="start">poland</text><polyline points="64.0,269.9 129.3,275.1 194.7,274.5 260.0,280.3 325.3,282.7 390.7,285.5 456.0,269.6 521.3,273.6 586.7,271.5 652.0,267.4 717.3,278.0 782.7,272.7 848.0,272.0" fill="none" stroke="#9aa3af" stroke-width="1.15" stroke-opacity="0.62" stroke-linejoin="round"/><text x="855.0" y="275.5" font-family="ui-monospace,'IBM Plex Mono',Menlo,monospace" font-size="9.5" font-weight="400" letter-spacing="0" fill="#9aa3af" text-anchor="start">romania</text><polyline points="64.0,117.1 129.3,110.3 194.7,117.9 260.0,134.9 325.3,117.3 390.7,139.5 456.0,109.8 521.3,128.3 586.7,129.2 652.0,128.9 717.3,145.2 782.7,134.9 848.0,118.6" fill="none" stroke="#9aa3af" stroke-width="1.15" stroke-opacity="0.62" stroke-linejoin="round"/><text x="855.0" y="122.1" font-family="ui-monospace,'IBM Plex Mono',Menlo,monospace" font-size="9.5" font-weight="400" letter-spacing="0" fill="#9aa3af" text-anchor="start">slovakia</text><text x="64.0" y="383.0" font-family="ui-monospace,'IBM Plex Mono',Menlo,monospace" font-size="9" font-weight="400" letter-spacing="0" fill="#6b7280" text-anchor="middle">2025-09</text><text x="194.7" y="383.0" font-family="ui-monospace,'IBM Plex Mono',Menlo,monospace" font-size="9" font-weight="400" letter-spacing="0" fill="#6b7280" text-anchor="middle">2025-11</text><text x="325.3" y="383.0" font-family="ui-monospace,'IBM Plex Mono',Menlo,monospace" font-size="9" font-weight="400" letter-spacing="0" fill="#6b7280" text-anchor="middle">2026-01</text><text x="456.0" y="383.0" font-family="ui-monospace,'IBM Plex Mono',Menlo,monospace" font-size="9" font-weight="400" letter-spacing="0" fill="#6b7280" text-anchor="middle">2026-03</text><text x="586.7" y="383.0" font-family="ui-monospace,'IBM Plex Mono',Menlo,monospace" font-size="9" font-weight="400" letter-spacing="0" fill="#6b7280" text-anchor="middle">2026-05</text><text x="717.3" y="383.0" font-family="ui-monospace,'IBM Plex Mono',Menlo,monospace" font-size="9" font-weight="400" letter-spacing="0" fill="#6b7280" text-anchor="middle">2026-07</text><text x="848.0" y="383.0" font-family="ui-monospace,'IBM Plex Mono',Menlo,monospace" font-size="9" font-weight="400" letter-spacing="0" fill="#6b7280" text-anchor="middle">2026-09</text><text x="64.0" y="24.0" font-family="ui-monospace,'IBM Plex Mono',Menlo,monospace" font-size="10.5" font-weight="400" letter-spacing="1.6" fill="#12161d" text-anchor="start">ARTICLES PER DAY · MONTHLY MEAN · SEVEN MIRRORS OF ONE NETWORK</text><text x="64.0" y="40.0" font-family="'Newsreader',Georgia,serif" font-size="10" font-weight="400" letter-spacing="0" fill="#6b7280" text-anchor="start">Hungary falls 63.7% while the six siblings move +1.6% on average — but the step lands 15 days after the vote</text></svg>
