<svg xmlns="http://www.w3.org/2000/svg" viewBox="0 0 980 420" width="980" height="420" role="img" aria-label="Monthly output of seven mirrors of one network; the Hungarian line falls 63.7% after April 2026 while the six others hold roughly flat"><title>Monthly output of seven mirrors of one network; the Hungarian line falls 63.7% after April 2026 while the six others hold roughly flat</title><rect width="980" height="420" fill="#0b1018"/><rect x="64" y="52" width="784" height="314" fill="#0f1520"/><line x1="64" y1="366.0" x2="848" y2="366.0" stroke="#1d2430" stroke-width="1"/><text x="56.0" y="369.5" font-family="ui-monospace,'IBM Plex Mono',Menlo,monospace" font-size="10" font-weight="400" letter-spacing="0" fill="#8b93a3" text-anchor="end">0</text><line x1="64" y1="289.7" x2="848" y2="289.7" stroke="#1d2430" stroke-width="1"/><text x="56.0" y="293.2" font-family="ui-monospace,'IBM Plex Mono',Menlo,monospace" font-size="10" font-weight="400" letter-spacing="0" fill="#8b93a3" text-anchor="end">100</text><line x1="64" y1="213.4" x2="848" y2="213.4" stroke="#1d2430" stroke-width="1"/><text x="56.0" y="216.9" font-family="ui-monospace,'IBM Plex Mono',Menlo,monospace" font-size="10" font-weight="400" letter-spacing="0" fill="#8b93a3" text-anchor="end">200</text><line x1="64" y1="137.1" x2="848" y2="137.1" stroke="#1d2430" stroke-width="1"/><text x="56.0" y="140.6" font-family="ui-monospace,'IBM Plex Mono',Menlo,monospace" font-size="10" font-weight="400" letter-spacing="0" fill="#8b93a3" text-anchor="end">300</text><line x1="64" y1="60.8" x2="848" y2="60.8" stroke="#1d2430" stroke-width="1"/><text x="56.0" y="64.3" font-family="ui-monospace,'IBM Plex Mono',Menlo,monospace" font-size="10" font-weight="400" letter-spacing="0" fill="#8b93a3" text-anchor="end">400</text><line x1="521.3" y1="52" x2="521.3" y2="366" stroke="#6ea8d8" stroke-width="1" stroke-dasharray="3 3"/><text x="525.3" y="65.0" font-family="ui-monospace,'IBM Plex Mono',Menlo,monospace" font-size="9.5" font-weight="400" letter-spacing="0" fill="#6ea8d8" text-anchor="start">12 Apr · vote</text><line x1="586.7" y1="52" x2="586.7" y2="366" stroke="#6ea8d8" stroke-width="1" stroke-dasharray="1 4"/><text x="590.7" y="65.0" font-family="ui-monospace,'IBM Plex Mono',Menlo,monospace" font-size="9.5" font-weight="400" letter-spacing="0" fill="#6ea8d8" text-anchor="start">≈27 Apr · onset</text><polyline points="64.0,172.7 129.3,164.1 194.7,183.4 260.0,198.5 325.3,187.1 390.7,200.1 456.0,160.3 521.3,212.7 586.7,300.2 652.0,296.7 717.3,257.7 782.7,215.5 848.0,232.3" fill="none" stroke="#ff6b57" stroke-width="3.1" stroke-opacity="1" stroke-linejoin="round"/><text x="855.0" y="235.8" font-family="ui-monospace,'IBM Plex Mono',Menlo,monospace" font-size="9.5" font-weight="500" letter-spacing="0" fill="#ff6b57" text-anchor="start">hungary</text><polyline points="64.0,91.4 129.3,92.2 194.7,103.0 260.0,113.2 325.3,99.4 390.7,130.1 456.0,97.6 521.3,135.6 586.7,156.2 652.0,153.7 717.3,169.0 782.7,131.3 848.0,133.8" fill="none" stroke="#7c8698" stroke-width="1.15" stroke-opacity="0.62" stroke-linejoin="round"/><text x="855.0" y="137.3" font-family="ui-monospace,'IBM Plex Mono',Menlo,monospace" font-size="9.5" font-weight="400" letter-spacing="0" fill="#7c8698" text-anchor="start">czechia</text><polyline points="64.0,87.2 129.3,83.0 194.7,83.3 260.0,81.8 325.3,79.5 390.7,88.2 456.0,82.2 521.3,92.3 586.7,82.7 652.0,77.9 717.3,80.4 782.7,81.0 848.0,75.3" fill="none" stroke="#7c8698" stroke-width="1.15" stroke-opacity="0.62" stroke-linejoin="round"/><text x="855.0" y="78.8" font-family="ui-monospace,'IBM Plex Mono',Menlo,monospace" font-size="9.5" font-weight="400" letter-spacing="0" fill="#7c8698" text-anchor="start">deutsch</text><polyline points="64.0,214.6 129.3,247.8 194.7,262.1 260.0,279.2 325.3,269.5 390.7,267.6 456.0,249.2 521.3,249.4 586.7,258.7 652.0,252.8 717.3,257.0 782.7,245.8 848.0,250.6" fill="none" stroke="#7c8698" stroke-width="1.15" stroke-opacity="0.62" stroke-linejoin="round"/><text x="855.0" y="254.1" font-family="ui-monospace,'IBM Plex Mono',Menlo,monospace" font-size="9.5" font-weight="400" letter-spacing="0" fill="#7c8698" text-anchor="start">moldova</text><polyline points="64.0,118.2 129.3,125.4 194.7,140.0 260.0,154.1 325.3,148.5 390.7,174.0 456.0,161.2 521.3,166.6 586.7,150.5 652.0,127.1 717.3,149.6 782.7,150.6 848.0,160.7" fill="none" stroke="#7c8698" stroke-width="1.15" stroke-opacity="0.62" stroke-linejoin="round"/><text x="855.0" y="164.2" font-family="ui-monospace,'IBM Plex Mono',Menlo,monospace" font-size="9.5" font-weight="400" letter-spacing="0" fill="#7c8698" text-anchor="start">poland</text><polyline points="64.0,268.7 129.3,273.9 194.7,273.2 260.0,279.2 325.3,281.5 390.7,284.4 456.0,268.3 521.3,272.3 586.7,270.3 652.0,266.1 717.3,276.8 782.7,271.5 848.0,274.2" fill="none" stroke="#7c8698" stroke-width="1.15" stroke-opacity="0.62" stroke-linejoin="round"/><text x="855.0" y="277.7" font-family="ui-monospace,'IBM Plex Mono',Menlo,monospace" font-size="9.5" font-weight="400" letter-spacing="0" fill="#7c8698" text-anchor="start">romania</text><polyline points="64.0,113.8 129.3,106.9 194.7,114.6 260.0,131.8 325.3,113.9 390.7,136.4 456.0,106.4 521.3,125.1 586.7,126.1 652.0,125.7 717.3,142.2 782.7,131.8 848.0,127.6" fill="none" stroke="#7c8698" stroke-width="1.15" stroke-opacity="0.62" stroke-linejoin="round"/><text x="855.0" y="131.1" font-family="ui-monospace,'IBM Plex Mono',Menlo,monospace" font-size="9.5" font-weight="400" letter-spacing="0" fill="#7c8698" text-anchor="start">slovakia</text><text x="64.0" y="383.0" font-family="ui-monospace,'IBM Plex Mono',Menlo,monospace" font-size="9" font-weight="400" letter-spacing="0" fill="#8b93a3" text-anchor="middle">2025-09</text><text x="194.7" y="383.0" font-family="ui-monospace,'IBM Plex Mono',Menlo,monospace" font-size="9" font-weight="400" letter-spacing="0" fill="#8b93a3" text-anchor="middle">2025-11</text><text x="325.3" y="383.0" font-family="ui-monospace,'IBM Plex Mono',Menlo,monospace" font-size="9" font-weight="400" letter-spacing="0" fill="#8b93a3" text-anchor="middle">2026-01</text><text x="456.0" y="383.0" font-family="ui-monospace,'IBM Plex Mono',Menlo,monospace" font-size="9" font-weight="400" letter-spacing="0" fill="#8b93a3" text-anchor="middle">2026-03</text><text x="586.7" y="383.0" font-family="ui-monospace,'IBM Plex Mono',Menlo,monospace" font-size="9" font-weight="400" letter-spacing="0" fill="#8b93a3" text-anchor="middle">2026-05</text><text x="717.3" y="383.0" font-family="ui-monospace,'IBM Plex Mono',Menlo,monospace" font-size="9" font-weight="400" letter-spacing="0" fill="#8b93a3" text-anchor="middle">2026-07</text><text x="848.0" y="383.0" font-family="ui-monospace,'IBM Plex Mono',Menlo,monospace" font-size="9" font-weight="400" letter-spacing="0" fill="#8b93a3" text-anchor="middle">2026-09</text><text x="64.0" y="24.0" font-family="ui-monospace,'IBM Plex Mono',Menlo,monospace" font-size="10.5" font-weight="400" letter-spacing="1.6" fill="#e9e4da" text-anchor="start">ARTICLES PER DAY · MONTHLY MEAN · SEVEN MIRRORS OF ONE NETWORK</text><text x="64.0" y="40.0" font-family="'Newsreader',Georgia,serif" font-size="10" font-weight="400" letter-spacing="0" fill="#8b93a3" text-anchor="start">Hungary falls 63.7% while the six siblings move +1.6% on average — but the step lands 15 days after the vote</text></svg>
