<svg xmlns="http://www.w3.org/2000/svg" viewBox="0 0 980 420" width="980" height="420" role="img" aria-label="Monthly output of seven mirrors of one network; the Hungarian line falls 63.7% after April 2026 while the six others hold roughly flat"><title>Monthly output of seven mirrors of one network; the Hungarian line falls 63.7% after April 2026 while the six others hold roughly flat</title><rect width="980" height="420" fill="#ffffff"/><rect x="64" y="52" width="784" height="314" fill="#f7f8fa"/><line x1="64" y1="366.0" x2="848" y2="366.0" stroke="#e4e7eb" stroke-width="1"/><text x="56.0" y="369.5" font-family="ui-monospace,'IBM Plex Mono',Menlo,monospace" font-size="10" font-weight="400" letter-spacing="0" fill="#6b7280" text-anchor="end">0</text><line x1="64" y1="289.5" x2="848" y2="289.5" stroke="#e4e7eb" stroke-width="1"/><text x="56.0" y="293.0" font-family="ui-monospace,'IBM Plex Mono',Menlo,monospace" font-size="10" font-weight="400" letter-spacing="0" fill="#6b7280" text-anchor="end">100</text><line x1="64" y1="213.0" x2="848" y2="213.0" stroke="#e4e7eb" stroke-width="1"/><text x="56.0" y="216.5" font-family="ui-monospace,'IBM Plex Mono',Menlo,monospace" font-size="10" font-weight="400" letter-spacing="0" fill="#6b7280" text-anchor="end">200</text><line x1="64" y1="136.5" x2="848" y2="136.5" stroke="#e4e7eb" stroke-width="1"/><text x="56.0" y="140.0" font-family="ui-monospace,'IBM Plex Mono',Menlo,monospace" font-size="10" font-weight="400" letter-spacing="0" fill="#6b7280" text-anchor="end">300</text><line x1="64" y1="60.0" x2="848" y2="60.0" stroke="#e4e7eb" stroke-width="1"/><text x="56.0" y="63.5" font-family="ui-monospace,'IBM Plex Mono',Menlo,monospace" font-size="10" font-weight="400" letter-spacing="0" fill="#6b7280" text-anchor="end">400</text><line x1="521.3" y1="52" x2="521.3" y2="366" stroke="#1f6feb" stroke-width="1" stroke-dasharray="3 3"/><text x="525.3" y="65.0" font-family="ui-monospace,'IBM Plex Mono',Menlo,monospace" font-size="9.5" font-weight="400" letter-spacing="0" fill="#1f6feb" text-anchor="start">12 Apr · vote</text><line x1="586.7" y1="52" x2="586.7" y2="366" stroke="#1f6feb" stroke-width="1" stroke-dasharray="1 4"/><text x="590.7" y="65.0" font-family="ui-monospace,'IBM Plex Mono',Menlo,monospace" font-size="9.5" font-weight="400" letter-spacing="0" fill="#1f6feb" text-anchor="start">≈27 Apr · onset</text><polyline points="64.0,172.2 129.3,163.5 194.7,183.0 260.0,198.0 325.3,186.6 390.7,199.6 456.0,159.8 521.3,212.3 586.7,300.1 652.0,296.5 717.3,257.5 782.7,215.1 848.0,233.4" fill="none" stroke="#c0392b" stroke-width="3.1" stroke-opacity="1" stroke-linejoin="round"/><text x="855.0" y="236.9" font-family="ui-monospace,'IBM Plex Mono',Menlo,monospace" font-size="9.5" font-weight="500" letter-spacing="0" fill="#c0392b" text-anchor="start">hungary</text><polyline points="64.0,90.7 129.3,91.5 194.7,102.3 260.0,112.5 325.3,98.7 390.7,129.5 456.0,96.9 521.3,135.0 586.7,155.7 652.0,153.1 717.3,168.5 782.7,130.7 848.0,129.0" fill="none" stroke="#9aa3af" stroke-width="1.15" stroke-opacity="0.62" stroke-linejoin="round"/><text x="855.0" y="132.5" font-family="ui-monospace,'IBM Plex Mono',Menlo,monospace" font-size="9.5" font-weight="400" letter-spacing="0" fill="#9aa3af" text-anchor="start">czechia</text><polyline points="64.0,86.4 129.3,82.2 194.7,82.6 260.0,81.1 325.3,78.8 390.7,87.5 456.0,81.5 521.3,91.6 586.7,82.0 652.0,77.2 717.3,79.6 782.7,80.2 848.0,75.3" fill="none" stroke="#9aa3af" stroke-width="1.15" stroke-opacity="0.62" stroke-linejoin="round"/><text x="855.0" y="78.8" font-family="ui-monospace,'IBM Plex Mono',Menlo,monospace" font-size="9.5" font-weight="400" letter-spacing="0" fill="#9aa3af" text-anchor="start">deutsch</text><polyline points="64.0,214.2 129.3,247.4 194.7,261.8 260.0,279.0 325.3,269.2 390.7,267.3 456.0,248.9 521.3,249.1 586.7,258.5 652.0,252.5 717.3,256.7 782.7,245.5 848.0,252.3" fill="none" stroke="#9aa3af" stroke-width="1.15" stroke-opacity="0.62" stroke-linejoin="round"/><text x="855.0" y="255.8" font-family="ui-monospace,'IBM Plex Mono',Menlo,monospace" font-size="9.5" font-weight="400" letter-spacing="0" fill="#9aa3af" text-anchor="start">moldova</text><polyline points="64.0,117.6 129.3,124.7 194.7,139.4 260.0,153.6 325.3,147.9 390.7,173.5 456.0,160.6 521.3,166.1 586.7,149.9 652.0,126.4 717.3,149.1 782.7,150.0 848.0,148.4" fill="none" stroke="#9aa3af" stroke-width="1.15" stroke-opacity="0.62" stroke-linejoin="round"/><text x="855.0" y="151.9" font-family="ui-monospace,'IBM Plex Mono',Menlo,monospace" font-size="9.5" font-weight="400" letter-spacing="0" fill="#9aa3af" text-anchor="start">poland</text><polyline points="64.0,268.4 129.3,273.7 194.7,273.0 260.0,279.0 325.3,281.3 390.7,284.2 456.0,268.1 521.3,272.1 586.7,270.0 652.0,265.8 717.3,276.6 782.7,271.2 848.0,268.6" fill="none" stroke="#9aa3af" stroke-width="1.15" stroke-opacity="0.62" stroke-linejoin="round"/><text x="855.0" y="272.1" font-family="ui-monospace,'IBM Plex Mono',Menlo,monospace" font-size="9.5" font-weight="400" letter-spacing="0" fill="#9aa3af" text-anchor="start">romania</text><polyline points="64.0,113.1 129.3,106.2 194.7,114.0 260.0,131.2 325.3,113.3 390.7,135.8 456.0,105.7 521.3,124.4 586.7,125.4 652.0,125.1 717.3,141.7 782.7,131.2 848.0,127.2" fill="none" stroke="#9aa3af" stroke-width="1.15" stroke-opacity="0.62" stroke-linejoin="round"/><text x="855.0" y="130.7" font-family="ui-monospace,'IBM Plex Mono',Menlo,monospace" font-size="9.5" font-weight="400" letter-spacing="0" fill="#9aa3af" text-anchor="start">slovakia</text><text x="64.0" y="383.0" font-family="ui-monospace,'IBM Plex Mono',Menlo,monospace" font-size="9" font-weight="400" letter-spacing="0" fill="#6b7280" text-anchor="middle">2025-09</text><text x="194.7" y="383.0" font-family="ui-monospace,'IBM Plex Mono',Menlo,monospace" font-size="9" font-weight="400" letter-spacing="0" fill="#6b7280" text-anchor="middle">2025-11</text><text x="325.3" y="383.0" font-family="ui-monospace,'IBM Plex Mono',Menlo,monospace" font-size="9" font-weight="400" letter-spacing="0" fill="#6b7280" text-anchor="middle">2026-01</text><text x="456.0" y="383.0" font-family="ui-monospace,'IBM Plex Mono',Menlo,monospace" font-size="9" font-weight="400" letter-spacing="0" fill="#6b7280" text-anchor="middle">2026-03</text><text x="586.7" y="383.0" font-family="ui-monospace,'IBM Plex Mono',Menlo,monospace" font-size="9" font-weight="400" letter-spacing="0" fill="#6b7280" text-anchor="middle">2026-05</text><text x="717.3" y="383.0" font-family="ui-monospace,'IBM Plex Mono',Menlo,monospace" font-size="9" font-weight="400" letter-spacing="0" fill="#6b7280" text-anchor="middle">2026-07</text><text x="848.0" y="383.0" font-family="ui-monospace,'IBM Plex Mono',Menlo,monospace" font-size="9" font-weight="400" letter-spacing="0" fill="#6b7280" text-anchor="middle">2026-09</text><text x="64.0" y="24.0" font-family="ui-monospace,'IBM Plex Mono',Menlo,monospace" font-size="10.5" font-weight="400" letter-spacing="1.6" fill="#12161d" text-anchor="start">ARTICLES PER DAY · MONTHLY MEAN · SEVEN MIRRORS OF ONE NETWORK</text><text x="64.0" y="40.0" font-family="'Newsreader',Georgia,serif" font-size="10" font-weight="400" letter-spacing="0" fill="#6b7280" text-anchor="start">Hungary falls 63.7% while the six siblings move +1.6% on average — but the step lands 15 days after the vote</text></svg>
