<svg xmlns="http://www.w3.org/2000/svg" viewBox="0 0 980 420" width="980" height="420" role="img" aria-label="Monthly output of seven mirrors of one network; the Hungarian line falls 63.7% after April 2026 while the six others hold roughly flat"><title>Monthly output of seven mirrors of one network; the Hungarian line falls 63.7% after April 2026 while the six others hold roughly flat</title><rect width="980" height="420" fill="#0b1018"/><rect x="64" y="52" width="784" height="314" fill="#0f1520"/><line x1="64" y1="366.0" x2="848" y2="366.0" stroke="#1d2430" stroke-width="1"/><text x="56.0" y="369.5" font-family="ui-monospace,'IBM Plex Mono',Menlo,monospace" font-size="10" font-weight="400" letter-spacing="0" fill="#8b93a3" text-anchor="end">0</text><line x1="64" y1="292.2" x2="848" y2="292.2" stroke="#1d2430" stroke-width="1"/><text x="56.0" y="295.7" font-family="ui-monospace,'IBM Plex Mono',Menlo,monospace" font-size="10" font-weight="400" letter-spacing="0" fill="#8b93a3" text-anchor="end">100</text><line x1="64" y1="218.4" x2="848" y2="218.4" stroke="#1d2430" stroke-width="1"/><text x="56.0" y="221.9" font-family="ui-monospace,'IBM Plex Mono',Menlo,monospace" font-size="10" font-weight="400" letter-spacing="0" fill="#8b93a3" text-anchor="end">200</text><line x1="64" y1="144.6" x2="848" y2="144.6" stroke="#1d2430" stroke-width="1"/><text x="56.0" y="148.1" font-family="ui-monospace,'IBM Plex Mono',Menlo,monospace" font-size="10" font-weight="400" letter-spacing="0" fill="#8b93a3" text-anchor="end">300</text><line x1="64" y1="70.8" x2="848" y2="70.8" stroke="#1d2430" stroke-width="1"/><text x="56.0" y="74.3" font-family="ui-monospace,'IBM Plex Mono',Menlo,monospace" font-size="10" font-weight="400" letter-spacing="0" fill="#8b93a3" text-anchor="end">400</text><line x1="521.3" y1="52" x2="521.3" y2="366" stroke="#6ea8d8" stroke-width="1" stroke-dasharray="3 3"/><text x="525.3" y="65.0" font-family="ui-monospace,'IBM Plex Mono',Menlo,monospace" font-size="9.5" font-weight="400" letter-spacing="0" fill="#6ea8d8" text-anchor="start">12 Apr · vote</text><line x1="586.7" y1="52" x2="586.7" y2="366" stroke="#6ea8d8" stroke-width="1" stroke-dasharray="1 4"/><text x="590.7" y="65.0" font-family="ui-monospace,'IBM Plex Mono',Menlo,monospace" font-size="9.5" font-weight="400" letter-spacing="0" fill="#6ea8d8" text-anchor="start">≈27 Apr · onset</text><polyline points="64.0,179.0 129.3,170.7 194.7,189.4 260.0,204.0 325.3,193.0 390.7,205.5 456.0,167.1 521.3,217.8 586.7,302.4 652.0,299.0 717.3,261.3 782.7,220.4 848.0,234.7" fill="none" stroke="#ff6b57" stroke-width="3.1" stroke-opacity="1" stroke-linejoin="round"/><text x="855.0" y="238.2" font-family="ui-monospace,'IBM Plex Mono',Menlo,monospace" font-size="9.5" font-weight="500" letter-spacing="0" fill="#ff6b57" text-anchor="start">hungary</text><polyline points="64.0,100.4 129.3,101.2 194.7,111.6 260.0,121.5 325.3,108.1 390.7,137.8 456.0,106.4 521.3,143.1 586.7,163.1 652.0,160.6 717.3,175.5 782.7,139.0 848.0,157.9" fill="none" stroke="#7c8698" stroke-width="1.15" stroke-opacity="0.62" stroke-linejoin="round"/><text x="855.0" y="161.4" font-family="ui-monospace,'IBM Plex Mono',Menlo,monospace" font-size="9.5" font-weight="400" letter-spacing="0" fill="#7c8698" text-anchor="start">czechia</text><polyline points="64.0,96.3 129.3,92.2 194.7,92.6 260.0,91.1 325.3,88.9 390.7,97.3 456.0,91.5 521.3,101.2 586.7,92.0 652.0,87.4 717.3,89.7 782.7,90.3 848.0,75.3" fill="none" stroke="#7c8698" stroke-width="1.15" stroke-opacity="0.62" stroke-linejoin="round"/><text x="855.0" y="78.8" font-family="ui-monospace,'IBM Plex Mono',Menlo,monospace" font-size="9.5" font-weight="400" letter-spacing="0" fill="#7c8698" text-anchor="start">deutsch</text><polyline points="64.0,219.6 129.3,251.6 194.7,265.5 260.0,282.0 325.3,272.7 390.7,270.8 456.0,253.0 521.3,253.2 586.7,262.2 652.0,256.5 717.3,260.6 782.7,249.7 848.0,256.0" fill="none" stroke="#7c8698" stroke-width="1.15" stroke-opacity="0.62" stroke-linejoin="round"/><text x="855.0" y="259.5" font-family="ui-monospace,'IBM Plex Mono',Menlo,monospace" font-size="9.5" font-weight="400" letter-spacing="0" fill="#7c8698" text-anchor="start">moldova</text><polyline points="64.0,126.3 129.3,133.3 194.7,147.4 260.0,161.1 325.3,155.6 390.7,180.3 456.0,167.9 521.3,173.1 586.7,157.5 652.0,134.9 717.3,156.7 782.7,157.6 848.0,158.6" fill="none" stroke="#7c8698" stroke-width="1.15" stroke-opacity="0.62" stroke-linejoin="round"/><text x="855.0" y="162.1" font-family="ui-monospace,'IBM Plex Mono',Menlo,monospace" font-size="9.5" font-weight="400" letter-spacing="0" fill="#7c8698" text-anchor="start">poland</text><polyline points="64.0,271.8 129.3,276.9 194.7,276.3 260.0,282.0 325.3,284.3 390.7,287.1 456.0,271.5 521.3,275.4 586.7,273.4 652.0,269.3 717.3,279.7 782.7,274.6 848.0,264.2" fill="none" stroke="#7c8698" stroke-width="1.15" stroke-opacity="0.62" stroke-linejoin="round"/><text x="855.0" y="267.7" font-family="ui-monospace,'IBM Plex Mono',Menlo,monospace" font-size="9.5" font-weight="400" letter-spacing="0" fill="#7c8698" text-anchor="start">romania</text><polyline points="64.0,122.0 129.3,115.4 194.7,122.9 260.0,139.5 325.3,122.2 390.7,144.0 456.0,114.9 521.3,133.0 586.7,133.9 652.0,133.6 717.3,149.6 782.7,139.5 848.0,129.1" fill="none" stroke="#7c8698" stroke-width="1.15" stroke-opacity="0.62" stroke-linejoin="round"/><text x="855.0" y="132.6" font-family="ui-monospace,'IBM Plex Mono',Menlo,monospace" font-size="9.5" font-weight="400" letter-spacing="0" fill="#7c8698" text-anchor="start">slovakia</text><text x="64.0" y="383.0" font-family="ui-monospace,'IBM Plex Mono',Menlo,monospace" font-size="9" font-weight="400" letter-spacing="0" fill="#8b93a3" text-anchor="middle">2025-09</text><text x="194.7" y="383.0" font-family="ui-monospace,'IBM Plex Mono',Menlo,monospace" font-size="9" font-weight="400" letter-spacing="0" fill="#8b93a3" text-anchor="middle">2025-11</text><text x="325.3" y="383.0" font-family="ui-monospace,'IBM Plex Mono',Menlo,monospace" font-size="9" font-weight="400" letter-spacing="0" fill="#8b93a3" text-anchor="middle">2026-01</text><text x="456.0" y="383.0" font-family="ui-monospace,'IBM Plex Mono',Menlo,monospace" font-size="9" font-weight="400" letter-spacing="0" fill="#8b93a3" text-anchor="middle">2026-03</text><text x="586.7" y="383.0" font-family="ui-monospace,'IBM Plex Mono',Menlo,monospace" font-size="9" font-weight="400" letter-spacing="0" fill="#8b93a3" text-anchor="middle">2026-05</text><text x="717.3" y="383.0" font-family="ui-monospace,'IBM Plex Mono',Menlo,monospace" font-size="9" font-weight="400" letter-spacing="0" fill="#8b93a3" text-anchor="middle">2026-07</text><text x="848.0" y="383.0" font-family="ui-monospace,'IBM Plex Mono',Menlo,monospace" font-size="9" font-weight="400" letter-spacing="0" fill="#8b93a3" text-anchor="middle">2026-09</text><text x="64.0" y="24.0" font-family="ui-monospace,'IBM Plex Mono',Menlo,monospace" font-size="10.5" font-weight="400" letter-spacing="1.6" fill="#e9e4da" text-anchor="start">ARTICLES PER DAY · MONTHLY MEAN · SEVEN MIRRORS OF ONE NETWORK</text><text x="64.0" y="40.0" font-family="'Newsreader',Georgia,serif" font-size="10" font-weight="400" letter-spacing="0" fill="#8b93a3" text-anchor="start">Hungary falls 63.7% while the six siblings move +1.6% on average — but the step lands 15 days after the vote</text></svg>
